<svg width="30" height="25" viewBox="0 0 30 25" fill="none" xmlns="http://www.w3.org/2000/svg">
<path d="M14.8828 15.0821C15.753 15.0821 16.5876 14.7969 17.203 14.2892C17.8183 13.7815 18.164 13.093 18.164 12.375C18.164 12.2958 18.1597 12.2172 18.1515 12.1396L14.5974 15.0717C14.6915 15.0784 14.7864 15.0821 14.8828 15.0821ZM25.7437 4.00161L24.4922 2.97004C24.4482 2.93381 24.3886 2.91345 24.3265 2.91345C24.2644 2.91345 24.2048 2.93381 24.1608 2.97004L20.9581 5.61302C19.1913 4.8681 17.2053 4.49565 15 4.49565C9.36913 4.49565 5.16795 6.91506 2.39647 11.7539C2.28507 11.9485 2.22729 12.161 2.22729 12.3762C2.22729 12.5915 2.28507 12.804 2.39647 12.9986C3.50389 14.923 4.83739 16.4655 6.39696 17.626L3.29764 20.1819C3.25372 20.2182 3.22905 20.2673 3.22905 20.3186C3.22905 20.3699 3.25372 20.419 3.29764 20.4553L4.54833 21.4871C4.59228 21.5233 4.65187 21.5437 4.714 21.5437C4.77613 21.5437 4.83572 21.5233 4.87967 21.4871L25.7437 4.27522C25.7655 4.25726 25.7828 4.23593 25.7946 4.21246C25.8064 4.18899 25.8125 4.16383 25.8125 4.13841C25.8125 4.113 25.8064 4.08784 25.7946 4.06437C25.7828 4.0409 25.7655 4.01957 25.7437 4.00161ZM9.72655 12.375C9.72647 11.6403 9.95707 10.918 10.3959 10.2787C10.8347 9.6393 11.4668 9.1046 12.2305 8.72666C12.9943 8.34872 13.8637 8.14043 14.754 8.12208C15.6443 8.10372 16.5252 8.27593 17.3109 8.62194L15.8865 9.79708C15.3121 9.64533 14.698 9.62705 14.1118 9.74426C13.5256 9.86146 12.9899 10.1096 12.5633 10.4615C12.1368 10.8134 11.836 11.2554 11.694 11.739C11.5519 12.2226 11.5741 12.7292 11.758 13.2031L10.3336 14.3782C9.93385 13.7621 9.7253 13.0739 9.72655 12.375V12.375Z" fill="#565252"/>
<path d="M27.6036 11.7514C26.5723 9.95964 25.3449 8.49857 23.9212 7.36823L19.6984 10.8523C20.0544 11.62 20.1333 12.4563 19.9256 13.2601C19.7179 14.064 19.2325 14.8011 18.528 15.3823C17.8235 15.9634 16.9301 16.3639 15.9557 16.5353C14.9814 16.7066 13.9677 16.6415 13.0372 16.3478L9.45532 19.3028C11.117 19.9372 12.9653 20.2544 15 20.2544C20.6309 20.2544 24.8321 17.835 27.6036 12.9962C27.715 12.8016 27.7728 12.589 27.7728 12.3738C27.7728 12.1586 27.715 11.946 27.6036 11.7514V11.7514Z" fill="#565252"/>
</svg>
