<svg width="30" height="25" viewBox="0 0 30 25" fill="none" xmlns="http://www.w3.org/2000/svg">
<path d="M11.6015 12.375C11.6015 13.0929 11.9473 13.7815 12.5626 14.2892C13.178 14.7968 14.0126 15.082 14.8828 15.082C15.753 15.082 16.5876 14.7968 17.203 14.2892C17.8183 13.7815 18.164 13.0929 18.164 12.375C18.164 11.6571 17.8183 10.9685 17.203 10.4608C16.5876 9.95317 15.753 9.66797 14.8828 9.66797C14.0126 9.66797 13.178 9.95317 12.5626 10.4608C11.9473 10.9685 11.6015 11.6571 11.6015 12.375V12.375ZM27.6035 11.7514C24.8262 6.92468 20.6279 4.49561 15 4.49561C9.36913 4.49561 5.17381 6.92468 2.39647 11.7538C2.28507 11.9484 2.22729 12.161 2.22729 12.3762C2.22729 12.5914 2.28507 12.804 2.39647 12.9986C5.17381 17.8253 9.37206 20.2544 15 20.2544C20.6308 20.2544 24.8262 17.8253 27.6035 12.9962C27.8291 12.6046 27.8291 12.1502 27.6035 11.7514V11.7514ZM14.8828 16.6289C12.0351 16.6289 9.72655 14.7243 9.72655 12.375C9.72655 10.0257 12.0351 8.12109 14.8828 8.12109C17.7305 8.12109 20.039 10.0257 20.039 12.375C20.039 14.7243 17.7305 16.6289 14.8828 16.6289Z" fill="#565252"/>
</svg>
